<svg xmlns="http://www.w3.org/2000/svg" width="20" height="20.049" viewBox="0 0 20 20.049">
  <g id="calendar_3_" data-name="calendar (3)" transform="translate(-2 -2)">
    <path id="Path_22092" data-name="Path 22092" d="M19.327,5.007a1.335,1.335,0,0,0-1.333-1.337h-.333v1a.667.667,0,0,1-.666.668h-.666a.667.667,0,0,0,.666-.668v-2a.666.666,0,1,0-1.333,0v1H14v1a.667.667,0,0,1-.666.668h-.666a.667.667,0,0,0,.666-.668v-2a.666.666,0,1,0-1.333,0v1H10v1a.667.667,0,0,1-.666.668H8.664a.667.667,0,0,0,.666-.668v-2A.666.666,0,1,0,8,2.668v1H6.332v1a.667.667,0,0,1-.666.668H5a.667.667,0,0,0,.666-.668v-2a.666.666,0,1,0-1.333,0v1h-1A1.335,1.335,0,0,0,2,5.007v2H19.327Z" fill="#40c979"/>
    <path id="Path_22093" data-name="Path 22093" d="M43.676,40a3.676,3.676,0,1,0,3.676,3.676A3.676,3.676,0,0,0,43.676,40Zm0,4.344a.664.664,0,0,1-.242-.047l-1.22.976-.418-.522,1.221-.977a.638.638,0,0,1,.324-.674V41h.668v2.1a.666.666,0,0,1-.334,1.244Z" transform="translate(-25.351 -25.302)" fill="#40c979"/>
    <path id="Path_22094" data-name="Path 22094" d="M3.333,31.363h11a4.351,4.351,0,0,1,2.332-5.681H15v-2h2v1.882a4.254,4.254,0,0,1,2.332-.091V19H2V30.027a1.334,1.334,0,0,0,1.333,1.337ZM15,20h2v2H15ZM11.33,20h2v2h-2Zm0,3.676h2v2h-2Zm0,3.676h2v2h-2ZM7.665,20h2v2h-2Zm0,3.676h2v2h-2Zm0,3.676h2v2h-2ZM4,20H6v2H4Zm0,3.676H6v2H4Zm0,3.676H6v2H4Z" transform="translate(0 -11.32)" fill="#40c979"/>
  </g>
</svg>
