<svg id="Group_2337" data-name="Group 2337" xmlns="http://www.w3.org/2000/svg" width="40" height="40" viewBox="0 0 40 40">
  <rect id="Rectangle_349" data-name="Rectangle 349" width="40" height="40" rx="3" fill="#fff" opacity="0.31"/>
  <g id="casual-t-shirt-" transform="translate(6 8)">
    <path id="Path_4896" data-name="Path 4896" d="M122.534,25.789a2.729,2.729,0,0,0,2.6-1.884,10.969,10.969,0,0,1-5.2,0A2.728,2.728,0,0,0,122.534,25.789Z" transform="translate(-108.733 -23.467)" fill="#fff"/>
    <path id="Path_4897" data-name="Path 4897" d="M27.568,22.92a.632.632,0,0,0-.329-.362l-5.263-2.429a25.45,25.45,0,0,0-3.411-.9.628.628,0,0,0-.121-.012.618.618,0,0,0-.6.485,4.139,4.139,0,0,1-8.079,0,.619.619,0,0,0-.6-.485.628.628,0,0,0-.121.012,25.548,25.548,0,0,0-3.413.9L.363,22.558a.619.619,0,0,0-.328.362.614.614,0,0,0,.033.487l2.285,4.509a.62.62,0,0,0,.734.316l2.537-.752V42.608a.625.625,0,0,0,.625.624H21.354a.624.624,0,0,0,.623-.624V27.48l2.539.752a.62.62,0,0,0,.734-.316l2.285-4.509A.626.626,0,0,0,27.568,22.92Z" transform="translate(0 -19.219)" fill="#fff"/>
  </g>
</svg>
