<svg xmlns="http://www.w3.org/2000/svg" width="25.236" height="20.464" viewBox="0 0 25.236 20.464">
  <g id="Group_2475" data-name="Group 2475" transform="translate(-16 -39)">
    <path id="Subtraction_15" data-name="Subtraction 15" d="M14.806,25.236a16.133,16.133,0,0,1-7.321-1.787,14.589,14.589,0,0,1-3.077-2.188,16.9,16.9,0,0,1-2.614-3.109A11.269,11.269,0,0,1,.407,15.268a9.173,9.173,0,0,1-.394-3.2,3.265,3.265,0,0,1,.472-1.6A2.976,2.976,0,0,1,1.753,9.4a8.266,8.266,0,0,1,3.561-.8h.019a9.444,9.444,0,0,1,1.415.109,17.3,17.3,0,0,1,4.586,1.33,14.066,14.066,0,0,1,3.651,2.4,15.133,15.133,0,0,1,2.763,3.417,20.536,20.536,0,0,1,1.923,4.366,22.892,22.892,0,0,1,.784,3.79c.05.362-.083.545-.456.632A24.508,24.508,0,0,1,14.806,25.236ZM.679,10.479h0A32.137,32.137,0,0,0,12.2,18.641,32.019,32.019,0,0,0,.679,10.479ZM.5,9.043h0a.159.159,0,0,1-.08-.022c-.106-.06-.09-.188-.074-.312,0-.037.009-.073.01-.106a6.548,6.548,0,0,1,.568-2.45A9.248,9.248,0,0,1,2.258,4.031,10.82,10.82,0,0,1,6.1,1.05,11.224,11.224,0,0,1,8.42.269,11.713,11.713,0,0,1,10.913,0a16.512,16.512,0,0,1,4.241.636c.389.112.541.338.466.693a16.372,16.372,0,0,1-1.271,3.832,11.731,11.731,0,0,1-2.342,3.285c-.3.3-.444.437-.634.438h0a1.838,1.838,0,0,1-.582-.179l-.024-.01a13.828,13.828,0,0,0-5.192-1.1H5.566a10.971,10.971,0,0,0-2.991.416,5.432,5.432,0,0,0-1.768.854c-.021.016-.042.033-.065.052a.432.432,0,0,1-.241.13Z" transform="translate(16 59.464) rotate(-90)" fill="#40c979"/>
  </g>
</svg>
