<svg xmlns="http://www.w3.org/2000/svg" width="100.395" height="81.41" viewBox="0 0 100.395 81.41">
  <path id="Subtraction_15" d="M58.9,100.395a64.177,64.177,0,0,1-29.124-7.109,58.043,58.043,0,0,1-12.243-8.7,67.256,67.256,0,0,1-10.4-12.37A44.833,44.833,0,0,1,1.619,60.739,36.485,36.485,0,0,1,.053,48.024a12.99,12.99,0,0,1,1.876-6.36,11.839,11.839,0,0,1,5.045-4.277,32.884,32.884,0,0,1,14.167-3.182h.076a37.566,37.566,0,0,1,5.628.433,68.811,68.811,0,0,1,18.244,5.289A55.956,55.956,0,0,1,59.611,49.5,60.2,60.2,0,0,1,70.6,63.09a81.681,81.681,0,0,1,7.649,17.37A91.017,91.017,0,0,1,81.37,95.539c.2,1.441-.329,2.169-1.815,2.515A97.5,97.5,0,0,1,58.9,100.395ZM2.7,41.687h0A127.85,127.85,0,0,0,48.527,74.159,127.378,127.378,0,0,0,2.7,41.686ZM2,35.976H2a.632.632,0,0,1-.32-.089c-.422-.24-.357-.749-.294-1.241.018-.149.037-.289.041-.421a26.052,26.052,0,0,1,2.259-9.746,36.778,36.778,0,0,1,5.3-8.441A43.039,43.039,0,0,1,24.254,4.178,44.65,44.65,0,0,1,33.5,1.069,46.594,46.594,0,0,1,43.413,0,65.687,65.687,0,0,1,60.286,2.529c1.546.444,2.151,1.346,1.853,2.759a65.127,65.127,0,0,1-5.055,15.243A46.669,46.669,0,0,1,47.766,33.6c-1.213,1.195-1.767,1.739-2.523,1.743h0a7.311,7.311,0,0,1-2.314-.713l-.094-.038A55.012,55.012,0,0,0,22.18,30.206h-.036a43.647,43.647,0,0,0-11.9,1.653,21.606,21.606,0,0,0-7.035,3.4c-.085.063-.169.132-.258.205A1.72,1.72,0,0,1,2,35.977Z" transform="translate(0 81.41) rotate(-90)" fill="#40c979"/>
</svg>
