<svg xmlns="http://www.w3.org/2000/svg" width="280.201" height="227.214" viewBox="0 0 280.201 227.214">
  <path id="Subtraction_15" data-name="Subtraction 15" d="M164.395,280.2A179.118,179.118,0,0,1,83.108,260.36a162,162,0,0,1-34.169-24.293,187.711,187.711,0,0,1-29.023-34.524,125.13,125.13,0,0,1-15.4-32.019A101.831,101.831,0,0,1,.148,134.036a36.256,36.256,0,0,1,5.236-17.752,33.042,33.042,0,0,1,14.081-11.937A91.78,91.78,0,0,1,59,95.467h.211a104.844,104.844,0,0,1,15.707,1.21,192.05,192.05,0,0,1,50.919,14.763,156.173,156.173,0,0,1,40.534,26.7,168.016,168.016,0,0,1,30.674,37.942A227.973,227.973,0,0,1,218.4,224.565a254.028,254.028,0,0,1,8.7,42.083c.55,4.023-.919,6.055-5.066,7.018a272.116,272.116,0,0,1-57.643,6.535ZM7.534,116.348h0a356.828,356.828,0,0,0,127.9,90.628,355.511,355.511,0,0,0-127.9-90.631Zm-1.965-15.94h0a1.763,1.763,0,0,1-.893-.25c-1.178-.669-1-2.09-.819-3.463.051-.416.1-.806.115-1.174a72.71,72.71,0,0,1,6.3-27.2,102.648,102.648,0,0,1,14.8-23.56,120.123,120.123,0,0,1,42.618-33.1A124.618,124.618,0,0,1,93.486,2.983,130.043,130.043,0,0,1,121.165,0a183.332,183.332,0,0,1,47.092,7.06c4.314,1.238,6,3.757,5.172,7.7A181.771,181.771,0,0,1,159.319,57.3a130.253,130.253,0,0,1-26.005,36.47c-3.386,3.335-4.931,4.855-7.04,4.864h0a20.406,20.406,0,0,1-6.458-1.991l-.263-.106A153.538,153.538,0,0,0,61.9,84.3h-.1A121.818,121.818,0,0,0,28.6,88.918,60.3,60.3,0,0,0,8.965,98.395c-.237.176-.47.368-.72.573a4.8,4.8,0,0,1-2.675,1.443Z" transform="translate(0 227.214) rotate(-90)" fill="#4adc87"/>
</svg>
