<svg xmlns="http://www.w3.org/2000/svg" xmlns:xlink="http://www.w3.org/1999/xlink" width="120" height="125" viewBox="0 0 120 125">
  <defs>
    <clipPath id="clip-path">
      <rect id="Rectangle_727" data-name="Rectangle 727" width="120" height="125" fill="#fff" stroke="#707070" stroke-width="1"/>
    </clipPath>
  </defs>
  <g id="Mask_Group_23" data-name="Mask Group 23" clip-path="url(#clip-path)">
    <path id="Subtraction_15" data-name="Subtraction 15" d="M63.605,108.412a69.3,69.3,0,0,1-31.45-7.677,62.678,62.678,0,0,1-13.22-9.4A72.627,72.627,0,0,1,7.706,77.978,48.413,48.413,0,0,1,1.749,65.59,39.4,39.4,0,0,1,.057,51.859a14.028,14.028,0,0,1,2.026-6.868,12.784,12.784,0,0,1,5.448-4.618,35.51,35.51,0,0,1,15.3-3.436h.082a40.565,40.565,0,0,1,6.077.468,74.306,74.306,0,0,1,19.7,5.712A60.424,60.424,0,0,1,64.372,53.448,65.006,65.006,0,0,1,76.24,68.128,88.2,88.2,0,0,1,84.5,86.886a98.285,98.285,0,0,1,3.368,16.282c.213,1.556-.355,2.343-1.96,2.715a105.282,105.282,0,0,1-22.3,2.528Zm-60.69-63.4h0A138.059,138.059,0,0,0,52.4,80.08,137.55,137.55,0,0,0,2.915,45.015Zm-.76-6.167h0a.682.682,0,0,1-.345-.1c-.456-.259-.385-.809-.317-1.34.02-.161.04-.312.045-.454A28.132,28.132,0,0,1,3.976,26.433,39.715,39.715,0,0,1,9.7,17.317,46.476,46.476,0,0,1,26.191,4.512a48.215,48.215,0,0,1,9.98-3.358A50.314,50.314,0,0,1,46.88,0,70.932,70.932,0,0,1,65.1,2.731c1.669.479,2.323,1.454,2,2.979a70.328,70.328,0,0,1-5.459,16.461A50.4,50.4,0,0,1,51.58,36.282c-1.31,1.29-1.908,1.878-2.724,1.882h0a7.9,7.9,0,0,1-2.5-.77l-.1-.041a59.4,59.4,0,0,0-22.3-4.735h-.038A47.132,47.132,0,0,0,11.065,34.4a23.331,23.331,0,0,0-7.6,3.667c-.092.068-.182.142-.279.222a1.857,1.857,0,0,1-1.035.558Z" transform="translate(55.565 -16.936) rotate(48)" fill="#4adc87"/>
  </g>
</svg>
