<svg xmlns="http://www.w3.org/2000/svg" width="40" height="40" viewBox="0 0 40 40">
  <g id="Group_5461" data-name="Group 5461" transform="translate(-26 -561.887)">
    <rect id="Rectangle_349" data-name="Rectangle 349" width="40" height="40" rx="3" transform="translate(26 561.887)" fill="#fff" opacity="0.31"/>
    <path id="XMLID_364_" d="M14,2A12,12,0,1,0,26,14,12.02,12.02,0,0,0,14,2Zm0,3a9.007,9.007,0,0,1,8.465,5.973,29.613,29.613,0,0,0-16.929,0A9.005,9.005,0,0,1,14,5ZM5.485,16.892l3.2.291a2.566,2.566,0,0,1,2.308,2.169l.506,3.286a9.031,9.031,0,0,1-6.009-5.746ZM14,16.571A2.571,2.571,0,1,1,16.571,14,2.571,2.571,0,0,1,14,16.571Zm2.505,6.067.506-3.286a2.566,2.566,0,0,1,2.308-2.169l3.2-.291a9.031,9.031,0,0,1-6.009,5.746Z" transform="translate(32 567.887)" fill="#fff"/>
  </g>
</svg>
