<svg xmlns="http://www.w3.org/2000/svg" width="40" height="40" viewBox="0 0 40 40">
  <g id="Group_2166" data-name="Group 2166" transform="translate(0 0.188)">
    <rect id="Rectangle_349" data-name="Rectangle 349" width="40" height="40" rx="3" transform="translate(0 -0.188)" fill="#fff" opacity="0.31"/>
    <g id="Group_2165" data-name="Group 2165" transform="translate(9 7.813)">
      <rect id="Rectangle_351" data-name="Rectangle 351" width="23" height="24" fill="#fff" opacity="0"/>
      <g id="restaurant-cutlery-circular-symbol-of-a-spoon-and-a-fork-in-a-circle" transform="translate(0 1)">
        <g id="Group_2164" data-name="Group 2164">
          <path id="Path_4887" data-name="Path 4887" d="M39.525,29.813A9.692,9.692,0,0,0,35.35,48.255l.3-5.866s-.571-.187-.7-.248c-1.211-.533-2.091-2.1-2.091-4.143,0-2.225,1.725-4.141,3.393-4.157h.006c1.668.016,3.394,1.932,3.394,4.157,0,2.039-.881,3.609-2.09,4.143l-.7.255.339,6.522a9.507,9.507,0,0,0,5.4-.218l.3-5.812a3.116,3.116,0,0,1-1.89-1.31c-.524-.785.4-7.737.4-7.737h.6v6.523h.6V33.842h.656v6.524h.6V33.842h.68v6.524h.6V33.842h.463s.928,6.951.4,7.737a3.125,3.125,0,0,1-1.87,1.307l-.027.01.261,5a9.693,9.693,0,0,0-4.863-18.082Z" transform="translate(-28.024 -28.012)" fill="#fff"/>
          <path id="Path_4888" data-name="Path 4888" d="M91.56,142.218a2.8,2.8,0,0,1,.084-.278.127.127,0,0,0-.071-.141.116.116,0,0,0-.152.033s-.066.106-.163.262a2.81,2.81,0,0,0-.273.617,5.1,5.1,0,0,0-.187.895,4.268,4.268,0,0,0-.014.519,2.454,2.454,0,0,0,.1.55,3.56,3.56,0,0,0,.867,1.583,2.987,2.987,0,0,0,.464.376l.044.031c.027.018.052.034.078.049a.89.89,0,0,0,.187.077.112.112,0,0,0,.127-.053.114.114,0,0,0-.038-.135,1.211,1.211,0,0,1-.138-.151,2.744,2.744,0,0,1-.178-.243c-.047-.069-.1-.147-.155-.223a7.849,7.849,0,0,1-.612-1.506,2,2,0,0,1-.086-.415,4.234,4.234,0,0,1-.024-.443,5.856,5.856,0,0,1,.036-.823A3.212,3.212,0,0,1,91.56,142.218Z" transform="translate(-85.297 -133.218)" fill="#fff"/>
          <path id="Path_4889" data-name="Path 4889" d="M11.5,0A11.5,11.5,0,1,0,23,11.5,11.514,11.514,0,0,0,11.5,0Zm0,22.142A10.643,10.643,0,1,1,22.144,11.5,10.655,10.655,0,0,1,11.5,22.142Z" fill="#fff"/>
        </g>
      </g>
    </g>
  </g>
</svg>
