<svg xmlns="http://www.w3.org/2000/svg" width="40" height="40" viewBox="0 0 40 40">
  <g id="Group_2163" data-name="Group 2163" transform="translate(0 0.14)">
    <rect id="Rectangle_349" data-name="Rectangle 349" width="40" height="40" rx="3" transform="translate(0 -0.14)" fill="#fff" opacity="0.31"/>
    <g id="grocery" transform="translate(9 7.86)">
      <path id="Path_4876" data-name="Path 4876" d="M179.944,93.314l.008.006V88.07h-3.894v2.812a2.809,2.809,0,0,1,3.886,2.431Zm0,0" transform="translate(-166.54 -83.366)" fill="#fff"/>
      <path id="Path_4877" data-name="Path 4877" d="M160.059,154.022c0,.043.007.081.01.123l1.048-.7a.433.433,0,0,1,.48,0l1.058.706,1.058-.705a.434.434,0,0,1,.126-.056,1.942,1.942,0,0,0-3.78.631Zm0,0" transform="translate(-151.405 -143.938)" fill="#fff"/>
      <path id="Path_4878" data-name="Path 4878" d="M190.907,49.368l1.3-1.3h-3.536l-1.3,1.3Zm0,0" transform="translate(-177.24 -45.47)" fill="#fff"/>
      <path id="Path_4879" data-name="Path 4879" d="M264.059,58.616l.333-.222,2.3-6.112-.9-.9-1.731,1.731Zm0,0" transform="translate(-249.781 -48.604)" fill="#fff"/>
      <path id="Path_4880" data-name="Path 4880" d="M97.352,3.7a.433.433,0,0,1-.553.659.464.464,0,0,0-.582.055l-.011.012-.008.007a.478.478,0,0,0-.12.241.5.5,0,0,0,.13.44c.01.011.078.087.162.187l.111.13a2.3,2.3,0,0,1,.462.07,2.336,2.336,0,0,1,1.5,1.211l.817,1.74a2.771,2.771,0,0,1,.273-.3V4.331c0-.01,0-.017.005-.027a.422.422,0,0,1,.023-.114.4.4,0,0,1,.014-.041.434.434,0,0,1,.083-.123l.2-.2-.013-.013,1.275-1.3a.5.5,0,0,0,0-.692.468.468,0,0,0-.658,0l-.638.649a.433.433,0,0,1-.741-.3V.437a.418.418,0,1,0-.834,0V2.168a.433.433,0,0,1-.742.3l-.635-.649a.461.461,0,0,0-.662,0,.5.5,0,0,0,0,.692Zm0,0" transform="translate(-90.877 -0.001)" fill="#fff"/>
      <path id="Path_4881" data-name="Path 4881" d="M216.059,16.07h3.894v.865h-3.894Zm0,0" transform="translate(-204.377 -15.201)" fill="#fff"/>
      <path id="Path_4882" data-name="Path 4882" d="M4.713,352.07a1.393,1.393,0,0,0-.992.411l-.328.327a.432.432,0,0,1-.612,0l-.327-.327a1.4,1.4,0,0,0-2.4.992,6.487,6.487,0,0,0,.682,2.886l.151.3a1.081,1.081,0,0,0,.972.6,1.1,1.1,0,0,0,.489-.115l.544-.273a.433.433,0,0,1,.387,0l.545.273a1.1,1.1,0,0,0,.484.115,1.082,1.082,0,0,0,.972-.6l.151-.3a6.484,6.484,0,0,0,.681-2.885,1.4,1.4,0,0,0-1.4-1.4Zm0,0" transform="translate(-0.059 -333.265)" fill="#fff"/>
      <path id="Path_4883" data-name="Path 4883" d="M313.982,194.378l-1.058-.706-.865.577v13.182h1.731a1.3,1.3,0,0,0,1.3-1.3V193.962l-.625.417a.433.433,0,0,1-.48,0Zm0,0" transform="translate(-295.184 -183.434)" fill="#fff"/>
      <path id="Path_4884" data-name="Path 4884" d="M74.7,118.892l1.125-.87.53.685-1.115.862.093.116.96.64,1.058-.705a.433.433,0,0,1,.48,0l.228.152a2.784,2.784,0,0,1,.064-.308l-1.1-2.35a1.459,1.459,0,0,0-2.12-.55,1.5,1.5,0,0,0-.3,2.206Zm0,0" transform="translate(-70.236 -110.098)" fill="#fff"/>
      <path id="Path_4885" data-name="Path 4885" d="M104.952,194.377a.433.433,0,0,1-.48,0l-1.058-.706-1.058.705a.433.433,0,0,1-.48,0l-1.058-.705-1.058.705a.433.433,0,0,1-.48,0l-1.058-.705-1.058.705a.433.433,0,0,1-.48,0l-.625-.416v7.485a2.268,2.268,0,0,1,1.731,2.2,7.361,7.361,0,0,1-.773,3.273l-.151.3a2.048,2.048,0,0,1-.126.214h10.136V194.249l-.865-.578Zm0,0" transform="translate(-90.866 -183.433)" fill="#fff"/>
      <path id="Path_4886" data-name="Path 4886" d="M294.4.912A1.91,1.91,0,0,0,292.812.07,1.964,1.964,0,0,0,291,1.353l-3.167,8.429.878.586,1.058-.705a.433.433,0,0,1,.48,0l1.058.705.649-.433L294.633,2.8A2.049,2.049,0,0,0,294.4.912Zm-3.53,7.946-.845-2.6.822-.268.845,2.6Zm1.268-3.029-.845-2.6.822-.268.845,2.6Zm0,0" transform="translate(-272.264 -0.067)" fill="#fff"/>
    </g>
  </g>
</svg>
