<svg xmlns="http://www.w3.org/2000/svg" width="24" height="24" viewBox="0 0 24 24">
  <g id="Group_6289" data-name="Group 6289" transform="translate(-79 -821)">
    <g id="Rectangle_1032" data-name="Rectangle 1032" transform="translate(79 821)" fill="#fff"
        stroke="#707070" stroke-width="1" opacity="0">
      <rect width="24" height="24" stroke="none" />
      <rect x="0.5" y="0.5" width="23" height="23" fill="none" />
    </g>
    <g id="_x32_7-Phone" transform="translate(69.311 811.309)">
      <path id="Path_19777" data-name="Path 19777"
          d="M32.526,27.433,29.041,25a2.687,2.687,0,0,0-3.745.666l-.809,1.159a29.963,29.963,0,0,1-4.31-3.621,29.925,29.925,0,0,1-3.62-4.31l1.159-.809a2.686,2.686,0,0,0,.666-3.746l-2.434-3.484a2.692,2.692,0,0,0-2.2-1.163,2.523,2.523,0,0,0-.876.157,4.825,4.825,0,0,0-.906.445l-.481.339a3.648,3.648,0,0,0-.339.3,4.833,4.833,0,0,0-1.239,2.208c-1,3.76,1.482,9.445,6.183,14.146,3.948,3.948,8.69,6.4,12.377,6.4h0a6.867,6.867,0,0,0,1.769-.219,4.832,4.832,0,0,0,2.208-1.239,3.658,3.658,0,0,0,.318-.36l.339-.484a4.844,4.844,0,0,0,.429-.882,2.647,2.647,0,0,0-1.007-3.073Z"
          fill="#fff" />
    </g>
  </g>
</svg>
