<svg xmlns="http://www.w3.org/2000/svg" width="40" height="40" viewBox="0 0 40 40">
  <g id="Group_2749" transform="translate(-209 -329)">
    <rect id="Rectangle_349" width="40" height="40" rx="3" transform="translate(209 329)" fill="#fff" opacity="0.25"/>
    <g id="fast-food" transform="translate(217.001 337)">
      <path id="Path_5001"  d="M25.522,161.719a2.144,2.144,0,0,1-1.081-1.86,5.96,5.96,0,0,1,5.953-5.953h2.453L32.964,152h-13.9l1,16.475a.714.714,0,0,0,.713.671h4.384A3.553,3.553,0,0,1,24.442,167a2.147,2.147,0,0,1,1.415-2.016,2.848,2.848,0,0,1,0-3.114C25.625,161.821,25.5,161.769,25.522,161.719Zm0,0" transform="translate(-18.156 -144.761)" fill="#fff"/>
      <path id="Path_5002"  d="M7.857,5.811H15a.714.714,0,0,0,0-1.429H9.176L11.1,1.429h2.471a.714.714,0,1,0,0-1.429H10.715a.714.714,0,0,0-.6.324L7.47,4.382H.713a.714.714,0,1,0,0,1.429H7.857Zm0,0" fill="#fff"/>
      <path id="Path_5003"  d="M162,226.525a.714.714,0,0,0,.714.714h15.241a.714.714,0,0,0,.714-.714A4.53,4.53,0,0,0,174.145,222h-7.62A4.53,4.53,0,0,0,162,226.525Zm0,0" transform="translate(-154.286 -211.427)" fill="#fff"/>
      <path id="Path_5004"  d="M183.429,362a1.429,1.429,0,1,0,0,2.858h11.907a1.429,1.429,0,1,0,0-2.858Zm0,0" transform="translate(-173.333 -344.759)" fill="#fff"/>
      <path id="Path_5005"  d="M177.955,452H162.714a.714.714,0,0,0-.714.714,2.146,2.146,0,0,0,2.143,2.143h12.383a2.146,2.146,0,0,0,2.143-2.143A.714.714,0,0,0,177.955,452Zm0,0" transform="translate(-154.286 -430.472)" fill="#fff"/>
    </g>
  </g>
</svg>
