<svg id="Group_6320" data-name="Group 6320" xmlns="http://www.w3.org/2000/svg" width="40" height="40" viewBox="0 0 40 40">
  <rect id="Rectangle_349" data-name="Rectangle 349" width="40" height="40" rx="3" fill="#fff" opacity="0.31"/>
  <g id="Group_2333" data-name="Group 2333" transform="translate(8 8)">
    <g id="Rectangle_370" data-name="Rectangle 370" fill="#fff" stroke="#707070" stroke-width="1" opacity="0">
      <rect width="24" height="24" stroke="none"/>
      <rect x="0.5" y="0.5" width="23" height="23" fill="none"/>
    </g>
    <g id="meat" transform="translate(0 2)">
      <path id="Path_5011" data-name="Path 5011" d="M126.494,153.445a2.3,2.3,0,1,1-2.3-2.3A2.307,2.307,0,0,1,126.494,153.445Z" transform="translate(-116.172 -146.318)" fill="#fff"/>
      <path id="Path_5012" data-name="Path 5012" d="M20.107,50.817c-3.9-1.661-8.516-3.1-12.752-2.362A10.049,10.049,0,0,0,1.53,51.62,5.85,5.85,0,0,0,.4,57.675a8.363,8.363,0,0,0,6.691,5.166c2.609.2,4.585-1.9,6.985-2.685,1.437-.471,2.91-.456,4.346-.819a10.009,10.009,0,0,0,4.634-2.485,3.4,3.4,0,0,0,.932-1.922C24.21,52.855,21.6,51.452,20.107,50.817ZM8.018,59.094a3.71,3.71,0,1,1,3.71-3.71A3.715,3.715,0,0,1,8.018,59.094Z" transform="translate(0 -48.256)" fill="#fff"/>
      <g id="Group_2332" data-name="Group 2332" transform="translate(0.008 9.659)">
        <path id="Path_5013" data-name="Path 5013" d="M24.144,254.322v1.19c0,.023,0,.047,0,.071-.267,2.631-3.267,4.345-5.755,5.014a15.839,15.839,0,0,1-1.873.349,8.852,8.852,0,0,0-4.422,1.618c-1.43.861-2.844,1.7-4.609,1.559a7.3,7.3,0,0,1-3.461-1.277A9.59,9.59,0,0,1,1.4,260.151a7.59,7.59,0,0,1-1.227-3.72c0-.011,0-.022,0-.033v-.042l.024.035a10.587,10.587,0,0,0,2.982,2.883A8.478,8.478,0,0,0,7.6,260.667a9.721,9.721,0,0,0,4.793-1.657,13.154,13.154,0,0,1,2.28-1.112c1.271-.417,2.725-.406,4.253-.793a11.732,11.732,0,0,0,5.218-2.783Z" transform="translate(-0.168 -254.322)" fill="#fff"/>
      </g>
    </g>
  </g>
</svg>
