<svg xmlns="http://www.w3.org/2000/svg" width="40" height="40" viewBox="0 0 40 40">
  <g id="Group_6295" data-name="Group 6295" transform="translate(-26 -323)">
    <rect id="Rectangle_349" data-name="Rectangle 349" width="40" height="40" rx="3" transform="translate(26 323)" fill="#fff" opacity="0.25"/>
    <g id="halal" transform="translate(31 327.586)">
      <path id="Path_19778" data-name="Path 19778" d="M34.815,10.442l-.006,0a.41.41,0,0,1,.089.244v2.483h2.483a.412.412,0,0,1,.293.121l1.363,1.363L40.4,13.295a.412.412,0,0,1,.293-.121h2.483V10.691a.412.412,0,0,1,.121-.293l1.363-1.363L43.295,7.673a.412.412,0,0,1-.121-.293V4.9H40.691a.412.412,0,0,1-.293-.121L39.036,3.414,37.673,4.777a.412.412,0,0,1-.293.121H34.9V7.381a.412.412,0,0,1-.121.293L33.414,9.036l.939.939A2.512,2.512,0,0,1,34.815,10.442Zm-.21-1.7,1.12-1.12V6.139a.413.413,0,0,1,.414-.414h1.484l1.12-1.12a.413.413,0,0,1,.585,0l1.12,1.12h1.484a.413.413,0,0,1,.414.414V7.623l1.12,1.12a.413.413,0,0,1,0,.585l-1.12,1.12v1.484a.413.413,0,0,1-.414.414H40.448l-1.12,1.12a.414.414,0,0,1-.585,0l-1.12-1.12H36.139a.413.413,0,0,1-.414-.414V10.448l-1.12-1.12A.413.413,0,0,1,34.605,8.743Z" transform="translate(-17.829)" fill="#fff"/>
      <path id="Path_19779" data-name="Path 19779" d="M26.828,41.414a.414.414,0,0,0-.828,0v.414h.828Z" transform="translate(-13.483 -22.033)" fill="#fff"/>
      <path id="Path_19780" data-name="Path 19780" d="M31.15,20.9v-.314l-.243-.243a1.637,1.637,0,0,0-2.474.579,12.07,12.07,0,0,1,1.476-.094A12.2,12.2,0,0,1,31.15,20.9Z" transform="translate(-14.909 -9.723)" fill="#fff"/>
      <path id="Path_19781" data-name="Path 19781" d="M3,55H27v2.483H3Z" transform="translate(0 -30.24)" fill="#fff"/>
      <path id="Path_19782" data-name="Path 19782" d="M38.828,41.414a.414.414,0,0,0-.828,0v.414h.828Z" transform="translate(-20.517 -22.033)" fill="#fff"/>
      <path id="Path_19783" data-name="Path 19783" d="M27.345,35.172a11.108,11.108,0,0,0-3.826-8.416l-.847.847a.414.414,0,0,1-.585,0l-1.534-1.534H17.828a.413.413,0,0,1-.414-.414v-1.58A11.3,11.3,0,0,0,16.172,24,11.185,11.185,0,0,0,5,35.172V36H27.345Zm-3.31-.414a.413.413,0,0,1-.414.414H8.724a.413.413,0,0,1-.414-.414V28.966a.413.413,0,0,1,.414-.414h14.9a.413.413,0,0,1,.414.414Z" transform="translate(-1.172 -12.068)" fill="#fff"/>
      <path id="Path_19784" data-name="Path 19784" d="M39.484,13.208V14.45h1.241a.412.412,0,0,1,.293.121l.949.949.949-.949a.412.412,0,0,1,.293-.121H44.45V13.208a.412.412,0,0,1,.121-.293l.949-.949-.949-.949a.412.412,0,0,1-.121-.293V9.484H43.208a.412.412,0,0,1-.293-.121l-.949-.949-.949.949a.412.412,0,0,1-.293.121H39.484v1.241a.412.412,0,0,1-.121.293l-.949.949.949.949A.412.412,0,0,1,39.484,13.208Z" transform="translate(-20.76 -2.931)" fill="#fff"/>
      <path id="Path_19785" data-name="Path 19785" d="M15,41.966H29.069V37H15Zm11.586-4.138h.828V40.31h.828v.828H27a.413.413,0,0,1-.414-.414Zm-2.9,1.241a1.241,1.241,0,0,1,2.483,0v2.069h-.828V40.31h-.828v.828H23.69Zm-2.069-1.241h.828V40.31h.828v.828H22.034a.413.413,0,0,1-.414-.414Zm-2.9,1.241a1.241,1.241,0,0,1,2.483,0v2.069h-.828V40.31h-.828v.828h-.828Zm-2.9-1.241h.828v1.241h.828V37.828h.828v3.31h-.828V39.9h-.828v1.241h-.828Z" transform="translate(-7.034 -19.688)" fill="#fff"/>
      <path id="Path_19786" data-name="Path 19786" d="M17,15h.828v2.069H17Z" transform="translate(-8.207 -6.792)" fill="#fff"/>
      <path id="Path_19787" data-name="Path 19787" d="M9,23h2.069v.828H9Z" transform="translate(-3.517 -11.481)" fill="#fff"/>
      <path id="Path_19788" data-name="Path 19788" d="M0,0H.828V2.341H0Z" transform="translate(6.017 9.328) rotate(-45)" fill="#fff"/>
    </g>
  </g>
</svg>
