<svg xmlns="http://www.w3.org/2000/svg" width="40" height="40" viewBox="0 0 40 40">
  <g id="Group_2163" transform="translate(0 0.469)">
    <rect id="Rectangle_349" width="40" height="40" rx="3" transform="translate(0 -0.469)" fill="#fff" opacity="0.25"/>
    <g id="restaurant" transform="translate(7.944 7.531)">
      <g id="Group_2295" transform="translate(0.056 0)">
        <g id="Group_2294" transform="translate(0)">
          <path id="Path_4998" d="M23.353,12.379h-.739a10.374,10.374,0,0,0-8.6-9.394,2.343,2.343,0,0,0,.2-.939,2.11,2.11,0,0,0-4.219,0,2.343,2.343,0,0,0,.2.939,10.467,10.467,0,0,0-8.7,9.394H.759a.678.678,0,0,0-.7.664.693.693,0,0,0,.7.682H23.353a.693.693,0,0,0,.7-.682A.678.678,0,0,0,23.353,12.379ZM12.1,2.809a.765.765,0,0,1-.7-.763.7.7,0,0,1,1.406,0A.765.765,0,0,1,12.1,2.809Z" transform="translate(-0.056 0)" fill="#fff"/>
        </g>
      </g>
      <g id="Group_2297" transform="translate(1.421 17.161)">
        <g id="Group_2296">
          <path id="Path_4999" d="M30.732,361.685a.676.676,0,0,0-.682.682v5.469a.676.676,0,0,0,.682.682h2.047v-6.833Z" transform="translate(-30.05 -361.685)" fill="#fff"/>
        </g>
      </g>
      <g id="Group_2299" transform="translate(6.226 15.515)">
        <g id="Group_2298">
          <path id="Path_5000" d="M135.734,326.563a1.364,1.364,0,0,0-1.93,0l-3.907,3.889a2.705,2.705,0,0,1-1.821.789h-1.869a.682.682,0,1,1,0-1.365h2.1a1.369,1.369,0,0,0,1.365-1.365,1.353,1.353,0,0,0-1.365-1.346h-1.365a.789.789,0,0,1-.614-.164,7.164,7.164,0,0,0-.75-.632,4.865,4.865,0,0,0-4.981-.337,1.06,1.06,0,0,0-.569.939v7.009c8.679.012,7.884,0,7.936,0a5.421,5.421,0,0,0,3.86-1.6l3.907-3.907A1.342,1.342,0,0,0,135.734,326.563Z" transform="translate(-120.031 -325.501)" fill="#fff"/>
        </g>
      </g>
    </g>
  </g>
</svg>
