<svg xmlns="http://www.w3.org/2000/svg" xmlns:xlink="http://www.w3.org/1999/xlink" width="80" height="80" viewBox="0 0 80 80">
  <defs>
    <filter id="Rectangle_429" x="0" y="0" width="80" height="80" filterUnits="userSpaceOnUse">
      <feOffset dy="7" input="SourceAlpha"/>
      <feGaussianBlur stdDeviation="6" result="blur"/>
      <feFlood flood-opacity="0.051"/>
      <feComposite operator="in" in2="blur"/>
      <feComposite in="SourceGraphic"/>
    </filter>
  </defs>
  <g id="Group_2735" data-name="Group 2735" transform="translate(18 11)">
    <g transform="matrix(1, 0, 0, 1, -18, -11)" filter="url(#Rectangle_429)">
      <rect id="Rectangle_429-2" data-name="Rectangle 429" width="44" height="44" rx="22" transform="translate(18 11)" fill="#c52031"/>
    </g>
    <g id="Group_4615" data-name="Group 4615" transform="translate(-8.258 -2.779)">
      <path id="Path_15068" data-name="Path 15068" d="M311.733,527.077a9.317,9.317,0,0,0,2.661-.5l-.485,2.086a17.85,17.85,0,0,1-3.506.378c-4.2.022-5.995-2.134-6.013-4.374-.009-3,3.214-5.995,8.4-5.915a10.417,10.417,0,0,1,2.854.443l-.687,2.46h-.349a2.669,2.669,0,0,0-2.362-.984c-2.625,0-4.254,1.438-4.245,3.359,0,1.733,1.5,3.057,3.737,3.047Z" transform="translate(-268.095 -499.434)" fill="#f9f9f9"/>
      <path id="Path_15069" data-name="Path 15069" d="M253.495,519.3l-.16.652a.787.787,0,0,1,.687,1.09l-2.262,8.231h4.523l.169-.708a.793.793,0,0,1-.625-.981c.016-.069.661-2.44.661-2.44h2.076a1.564,1.564,0,0,1,1.37.545l.6-2.447h-3.49l.518-1.918H260.6c.558,0,.952.363.952.648h.341l.669-2.672Z" transform="translate(-225.026 -499.883)" fill="#f9f9f9"/>
      <path id="Path_15070" data-name="Path 15070" d="M188.155,527.787c-.269-.283-2.6-3.911-2.6-3.911l4.254-3.408a1.778,1.778,0,0,1,1.226-.532l.167-.656h-5.292l-.165.652c.363.022.865.344.451.727-.051.047-4.251,3.257-4.251,3.257l.908-3.27a1.046,1.046,0,0,1,.863-.7l.167-.654h-5.054l-.164.652a.791.791,0,0,1,.692,1.1c-1.688,6.093-1.493,5.49-1.6,5.824-.461,1.756-1.206,1.669-1.475,1.688l-.182.708h5.284l.182-.712s-.841-.169-.679-.776.827-3,.827-3a36.116,36.116,0,0,0,2.233,3.17c1.106,1.515,2.282,1.322,5.406,1.322l.182-.708a1.923,1.923,0,0,1-1.372-.767Z" transform="translate(-163.111 -499.867)" fill="#f9f9f9"/>
    </g>
  </g>
</svg>
