<svg xmlns="http://www.w3.org/2000/svg" width="24.809" height="22.773" viewBox="0 0 24.809 22.773">
  <g id="lunch-time" transform="translate(0 -21)">
    <path id="Path_5006" data-name="Path 5006" d="M336.361,311a4.361,4.361,0,1,0,4.361,4.361A4.361,4.361,0,0,0,336.361,311Zm.727,4.361a.727.727,0,0,1-.727.727h-1.454a.727.727,0,1,1,0-1.454h.727v-.727a.727.727,0,0,1,1.454,0Z" transform="translate(-315.913 -275.948)" fill="#fff"/>
    <path id="Path_5007" data-name="Path 5007" d="M199.387,22.615a1.938,1.938,0,0,0-3.822,0,11.4,11.4,0,0,1,3.822,0Z" transform="translate(-186.089)" fill="#fff"/>
    <path id="Path_5008" data-name="Path 5008" d="M0,331.727a2.18,2.18,0,0,0,2.18,2.18H14.653A5.781,5.781,0,0,1,15.728,331h-15A.727.727,0,0,0,0,331.727Z" transform="translate(0 -294.979)" fill="#fff"/>
    <path id="Path_5009" data-name="Path 5009" d="M48.994,90.691a5.835,5.835,0,0,1,.87.065A9.933,9.933,0,0,0,30,90.933v.727H45.784a5.781,5.781,0,0,1,3.21-.969Z" transform="translate(-28.546 -57.093)" fill="#fff"/>
  </g>
</svg>
