<svg id="Group_5472" data-name="Group 5472" xmlns="http://www.w3.org/2000/svg" xmlns:xlink="http://www.w3.org/1999/xlink" width="282" height="812" viewBox="0 0 282 812">
  <defs>
    <clipPath id="clip-path">
      <rect id="Rectangle_727" data-name="Rectangle 727" width="120" height="125" fill="#fff" stroke="#707070" stroke-width="1"/>
    </clipPath>
    <clipPath id="clip-path-2">
      <rect id="Rectangle_726" data-name="Rectangle 726" width="282" height="307" rx="29" transform="translate(0 505)" fill="#fff" stroke="#707070" stroke-width="1"/>
    </clipPath>
  </defs>
  <path id="Rectangle_395" data-name="Rectangle 395" d="M0,0H252a30,30,0,0,1,30,30V782a30,30,0,0,1-30,30H0a0,0,0,0,1,0,0V0A0,0,0,0,1,0,0Z" fill="#40c979"/>
  <g id="Mask_Group_23" data-name="Mask Group 23" clip-path="url(#clip-path)">
    <path id="Subtraction_15" data-name="Subtraction 15" d="M63.605,108.412a69.3,69.3,0,0,1-31.45-7.677,62.678,62.678,0,0,1-13.22-9.4A72.627,72.627,0,0,1,7.706,77.978,48.413,48.413,0,0,1,1.749,65.59,39.4,39.4,0,0,1,.057,51.859a14.028,14.028,0,0,1,2.026-6.868,12.784,12.784,0,0,1,5.448-4.618,35.51,35.51,0,0,1,15.3-3.436h.082a40.565,40.565,0,0,1,6.077.468,74.306,74.306,0,0,1,19.7,5.712A60.424,60.424,0,0,1,64.372,53.448,65.006,65.006,0,0,1,76.24,68.128,88.2,88.2,0,0,1,84.5,86.886a98.285,98.285,0,0,1,3.368,16.282c.213,1.556-.355,2.343-1.96,2.715a105.282,105.282,0,0,1-22.3,2.528Zm-60.69-63.4h0A138.059,138.059,0,0,0,52.4,80.08,137.55,137.55,0,0,0,2.915,45.015Zm-.76-6.167h0a.682.682,0,0,1-.345-.1c-.456-.259-.385-.809-.317-1.34.02-.161.04-.312.045-.454A28.132,28.132,0,0,1,3.976,26.433,39.715,39.715,0,0,1,9.7,17.317,46.476,46.476,0,0,1,26.191,4.512a48.215,48.215,0,0,1,9.98-3.358A50.314,50.314,0,0,1,46.88,0,70.932,70.932,0,0,1,65.1,2.731c1.669.479,2.323,1.454,2,2.979a70.328,70.328,0,0,1-5.459,16.461A50.4,50.4,0,0,1,51.58,36.282c-1.31,1.29-1.908,1.878-2.724,1.882h0a7.9,7.9,0,0,1-2.5-.77l-.1-.041a59.4,59.4,0,0,0-22.3-4.735h-.038A47.132,47.132,0,0,0,11.065,34.4a23.331,23.331,0,0,0-7.6,3.667c-.092.068-.182.142-.279.222a1.857,1.857,0,0,1-1.035.558Z" transform="translate(55.565 -16.936) rotate(48)" fill="#4adc87"/>
  </g>
  <g id="Mask_Group_22" data-name="Mask Group 22" clip-path="url(#clip-path-2)">
    <path id="Subtraction_15-2" data-name="Subtraction 15" d="M192.442,328.007A209.678,209.678,0,0,1,97.287,304.78a189.637,189.637,0,0,1-40-28.438,219.737,219.737,0,0,1-33.975-40.414A146.478,146.478,0,0,1,5.29,198.447,119.2,119.2,0,0,1,.173,156.9,42.442,42.442,0,0,1,6.3,136.124,38.679,38.679,0,0,1,22.786,122.15a107.439,107.439,0,0,1,46.285-10.4h.247A122.731,122.731,0,0,1,87.7,113.171a224.817,224.817,0,0,1,59.607,17.281,182.818,182.818,0,0,1,47.45,31.259,196.681,196.681,0,0,1,35.908,44.416,266.868,266.868,0,0,1,24.991,56.752,297.368,297.368,0,0,1,10.19,49.263c.644,4.709-1.075,7.088-5.93,8.215a318.54,318.54,0,0,1-67.478,7.65ZM8.82,136.2h0a417.707,417.707,0,0,0,149.727,106.09A416.166,416.166,0,0,0,8.82,136.195Zm-2.3-18.66h0a2.064,2.064,0,0,1-1.045-.292c-1.379-.783-1.165-2.446-.959-4.053.06-.487.12-.944.135-1.375a85.115,85.115,0,0,1,7.38-31.843A120.161,120.161,0,0,1,29.353,52.4,140.617,140.617,0,0,1,79.241,13.651a145.879,145.879,0,0,1,30.195-10.16A152.23,152.23,0,0,1,141.838,0a214.611,214.611,0,0,1,55.126,8.264c5.05,1.45,7.028,4.4,6.054,9.013A212.783,212.783,0,0,1,186.5,67.08a152.476,152.476,0,0,1-30.442,42.692c-3.964,3.9-5.773,5.683-8.242,5.694h0a23.887,23.887,0,0,1-7.56-2.33l-.307-.124A179.734,179.734,0,0,0,72.465,98.688h-.116a142.6,142.6,0,0,0-38.871,5.4,70.59,70.59,0,0,0-22.983,11.094c-.277.206-.551.431-.843.671a5.618,5.618,0,0,1-3.131,1.69Z" transform="translate(-46.007 812) rotate(-90)" fill="#4adc87"/>
  </g>
</svg>
