<svg id="report" xmlns="http://www.w3.org/2000/svg" width="20" height="20" viewBox="0 0 20 20">
  <path id="Path_5067" data-name="Path 5067" d="M239.793,292.105a.925.925,0,1,0,.926.925A.926.926,0,0,0,239.793,292.105Zm0,0" transform="translate(-229.793 -281.008)" fill="#40c979"/>
  <path id="Path_5068" data-name="Path 5068" d="M239.793,94.27a.875.875,0,0,0-.925.81v3.278a.934.934,0,0,0,1.851,0V95.08A.875.875,0,0,0,239.793,94.27Zm0,0" transform="translate(-229.793 -90.944)" fill="#40c979"/>
  <path id="Path_5069" data-name="Path 5069" d="M17.845,0H2.155A2.157,2.157,0,0,0,0,2.155V13.649A2.157,2.157,0,0,0,2.155,15.8H7.128L8.774,19.1A1.425,1.425,0,0,0,10,20a1.425,1.425,0,0,0,1.226-.9L12.872,15.8h4.973A2.157,2.157,0,0,0,20,13.649V2.155A2.157,2.157,0,0,0,17.845,0ZM10,13.921a1.841,1.841,0,1,1,1.841-1.841A1.843,1.843,0,0,1,10,13.921Zm1.841-6.862a1.841,1.841,0,0,1-3.682,0V4.352a1.841,1.841,0,0,1,3.682,0Zm0,0" fill="#40c979"/>
</svg>
