<svg xmlns="http://www.w3.org/2000/svg" width="20" height="20.001" viewBox="0 0 20 20.001">
  <g id="Group_2014" data-name="Group 2014" transform="translate(0)">
    <g id="Rectangle_336" data-name="Rectangle 336" fill="#5f5d5d" stroke="#707070" stroke-width="1" opacity="0">
      <rect width="20" height="20" stroke="none"/>
      <rect x="0.5" y="0.5" width="19" height="19" fill="none"/>
    </g>
    <g id="search-interface-symbol" transform="translate(0)">
      <g id="_x34__4_">
        <g id="Group_2013" data-name="Group 2013" transform="translate(0)">
          <path id="Path_4875" data-name="Path 4875" d="M19.817,18.912l-5.164-5.081a8.168,8.168,0,0,0,2.183-5.55A8.349,8.349,0,0,0,8.421,0,8.348,8.348,0,0,0,.006,8.281a8.348,8.348,0,0,0,8.415,8.281,8.463,8.463,0,0,0,5.3-1.849l5.184,5.1a.654.654,0,0,0,.915,0A.63.63,0,0,0,19.817,18.912Zm-11.4-3.625A7.064,7.064,0,0,1,1.3,8.281a7.064,7.064,0,0,1,7.12-7.007,7.064,7.064,0,0,1,7.12,7.007A7.064,7.064,0,0,1,8.421,15.288Z" transform="translate(-0.006)" fill="#5f5d5d"/>
        </g>
      </g>
    </g>
  </g>
</svg>
