<svg xmlns="http://www.w3.org/2000/svg" width="40" height="40" viewBox="0 0 40 40">
  <g id="Group_2224" data-name="Group 2224" transform="translate(0 0.096)">
    <rect id="Rectangle_349" data-name="Rectangle 349" width="40" height="40" rx="3" transform="translate(0 -0.096)" fill="#fff" opacity="0.31"/>
    <g id="sport-shoe" transform="translate(4 10.904)">
      <path id="Path_4898" data-name="Path 4898" d="M33.954,282.383l-.161-.237-.134.254c-.872,1.656-3.769,2.645-6.067,2.645-2.926,0-17.372-.44-19.252-.547-.372-.022-.76-.032-1.222-.032-.287,0-.553,0-.81.007-.224,0-.434.006-.633.006a4.673,4.673,0,0,1-1.5-.286,2.119,2.119,0,0,0-.588-.14.393.393,0,0,0-.292.111.628.628,0,0,0-.134.471c.029,1.947,1.06,2.1,2.513,2.1.2,0,.412,0,.637-.006.256,0,.521-.007.805-.007.455,0,.837.01,1.2.032,1.883.107,16.343.547,19.272.547a9.942,9.942,0,0,0,4.4-1.056c1.457-.761,2.259-1.785,2.259-2.883A1.7,1.7,0,0,0,33.954,282.383Z" transform="translate(-2.945 -269.411)" fill="#fff"/>
      <path id="Path_4899" data-name="Path 4899" d="M2.538,111.471c.2,0,.409,0,.632-.006.254,0,.517-.007.8-.007.452,0,.831.01,1.193.032,1.868.107,16.216.547,19.123.547a9.8,9.8,0,0,0,4.363-1.056c1.446-.761,2.242-1.785,2.242-2.883,0-1.593-1.817-2.107-3.74-2.651a15.411,15.411,0,0,1-3.05-1.1c-.413-.222-1.042-.543-1.809-.927,0-.022,0-.044,0-.067a1.188,1.188,0,0,0-1.96-.9l-.852-.418a1.186,1.186,0,0,0-1.878-.916l-.779-.379a1.188,1.188,0,0,0-2.022-.979c-2.534-1.224-4.612-2.218-4.8-2.307a.651.651,0,0,0-.367-.118.662.662,0,0,0-.526.267l-1.4,1.877a.988.988,0,0,0-.219.761c.084.5.6.85,1.01,1.133a2,2,0,0,1,.448.362l0,0A3.246,3.246,0,0,1,6.9,102.3,5.644,5.644,0,0,1,5,101.949,2.579,2.579,0,0,1,3.668,100.3c-.211-.511-.394-.952-.8-.952-.308,0-.663.276-1.192.925-1.8,2.282-1.712,5.769-1.65,8.316.007.273.013.535.017.783C.072,111.321,1.1,111.471,2.538,111.471ZM17.587,104.4a.564.564,0,0,1,.515-.143c.248.074.834.232,1.192.321.306.076.03.317.03.317l-4.653,4.259a.766.766,0,0,1-.48.175l-1.728,0c-.3,0-.052-.257-.052-.257Zm-3.543-1.005a.857.857,0,0,1,.79-.218c.218.069.731.2,1.058.288.28.078-.017.367-.017.367l-5.759,5.222a.644.644,0,0,1-.586.244c-.507,0-1.473.023-1.869.023-.224,0-.025-.24-.025-.24Z" transform="translate(-0.002 -97.338)" fill="#fff"/>
    </g>
  </g>
</svg>
