<svg xmlns="http://www.w3.org/2000/svg" width="20" height="20" viewBox="0 0 20 20">
  <g id="Group_2171" data-name="Group 2171" transform="translate(-3418 370)">
    <rect id="Rectangle_353" data-name="Rectangle 353" width="20" height="20" transform="translate(3418 -370)" fill="#40c979" opacity="0"/>
    <g id="Layer_15" data-name="Layer 15" transform="translate(3416.003 -372.793)">
      <path id="Path_4890" data-name="Path 4890" d="M25.087,20.788a.714.714,0,0,0,.714-.714V17.853a2.721,2.721,0,0,0,0-5.256V5.534a.714.714,0,0,0-1.428,0V12.6a2.721,2.721,0,0,0,0,5.256v2.221a.714.714,0,0,0,.714.707ZM23.78,15.225a1.307,1.307,0,1,1,1.307,1.307A1.307,1.307,0,0,1,23.78,15.225Z" transform="translate(-5.82 -0.008)" fill="#40c979"/>
      <path id="Path_4891" data-name="Path 4891" d="M14.905,20.78a.714.714,0,0,0,.714-.714v-9.9a2.735,2.735,0,1,0-1.428,0v9.9A.714.714,0,0,0,14.905,20.78ZM13.6,7.547a1.307,1.307,0,1,1,1.307,1.3,1.307,1.307,0,0,1-1.307-1.3Z" transform="translate(-2.908)" fill="#40c979"/>
      <path id="Path_4892" data-name="Path 4892" d="M4.013,15.432v4.642a.714.714,0,0,0,1.428,0V15.432a2.721,2.721,0,0,0,0-5.256V5.534a.714.714,0,0,0-1.428,0v4.642a2.721,2.721,0,0,0,0,5.256ZM4.727,11.5a1.307,1.307,0,1,1-1.3,1.307,1.307,1.307,0,0,1,1.3-1.307Z" transform="translate(0 -0.008)" fill="#40c979"/>
    </g>
  </g>
</svg>
